<?xml version="1.0" encoding="UTF-8"?>
<svg id="Layer_1" xmlns="http://www.w3.org/2000/svg" version="1.1" viewBox="0 0 500 500">
  <!-- Generator: Adobe Illustrator 30.1.0, SVG Export Plug-In . SVG Version: 2.1.1 Build 136)  -->
  <path d="M223,326.37c-45.12-5.47-76.9-37.94-76.9-79.98,0-17.09,6.15-35.55,16.41-47.85-4.44-11.28-3.76-35.21,1.37-45.12,13.67-1.71,32.13,5.47,43.07,15.38,12.99-4.1,26.66-6.15,43.41-6.15s30.42,2.05,42.72,5.81c10.6-9.57,29.39-16.75,43.07-15.04,4.78,9.23,5.47,33.15,1.03,44.78,10.94,12.99,16.75,30.42,16.75,48.19,0,42.04-31.79,73.83-77.59,79.64,11.62,7.52,19.48,23.93,19.48,42.72v35.55c0,10.25,8.54,16.06,18.8,11.96,61.87-23.58,110.4-85.45,110.4-162.01,0-96.73-78.61-175.68-175.34-175.68S75.02,157.53,75.02,254.25c0,75.88,48.19,138.77,113.13,162.35,9.23,3.42,18.12-2.73,18.12-11.96v-27.34c-4.79,2.05-10.94,3.42-16.41,3.42-22.56,0-35.89-12.3-45.46-35.21-3.76-9.23-7.86-14.7-15.72-15.72-4.1-.34-5.47-2.05-5.47-4.1,0-4.1,6.84-7.18,13.67-7.18,9.91,0,18.46,6.15,27.34,18.8,6.84,9.91,14.01,14.36,22.56,14.36s14.01-3.08,21.87-10.94c5.81-5.81,10.25-10.94,14.36-14.36h-.01Z" fill="#8a8f99"/>
  <g display="none">
    <path d="M250,0H0v250C0,111.93,111.93,0,250,0Z"/>
    <path d="M0,250v250h250C111.93,500,0,388.07,0,250Z"/>
    <path d="M250,0c138.07,0,250,111.93,250,250V0h-250Z"/>
    <path d="M250,500h250v-250c0,138.07-111.93,250-250,250Z"/>
  </g>
</svg>