<?xml version="1.0" encoding="UTF-8"?>
<svg id="Layer_1" xmlns="http://www.w3.org/2000/svg" version="1.1" viewBox="0 0 500 500">
  <!-- Generator: Adobe Illustrator 30.1.0, SVG Export Plug-In . SVG Version: 2.1.1 Build 136)  -->
  <g>
    <rect x="109.34" y="198.63" width="63.81" height="202.37" rx="10.2" ry="10.2" fill="#fff"/>
    <circle cx="141.24" cy="140.24" r="41.24" fill="#fff"/>
    <path d="M325.84,195.58c-33.68,0-49.5,12.33-60.15,28.31v-15.88c0-5.18-4.2-9.38-9.38-9.38h-45.05c-5.18,0-9.38,4.2-9.38,9.38v183.61c0,5.18,4.2,9.38,9.38,9.38h45.05c5.18,0,9.38-4.2,9.38-9.38v-98.45c1.17-13.23,6.99-42.7,35.7-42.7,37.01,0,33.28,43.06,33.28,55.8v85.35c0,5.18,4.2,9.38,9.38,9.38h46.58c5.18,0,9.38-4.2,9.38-9.38v-88.07c0-38.29.43-107.97-74.16-107.97Z" fill="#fff"/>
  </g>
  <g display="none">
    <path d="M250,0H0v250C0,111.93,111.93,0,250,0Z"/>
    <path d="M0,250v250h250C111.93,500,0,388.07,0,250Z"/>
    <path d="M250,0c138.07,0,250,111.93,250,250V0h-250Z"/>
    <path d="M250,500h250v-250c0,138.07-111.93,250-250,250Z"/>
  </g>
</svg>