<?xml version="1.0" encoding="UTF-8"?>
<svg id="Layer_1" xmlns="http://www.w3.org/2000/svg" version="1.1" viewBox="0 0 500 500">
  <!-- Generator: Adobe Illustrator 30.1.0, SVG Export Plug-In . SVG Version: 2.1.1 Build 136)  -->
  <g>
    <path d="M210.54,246.37l39.46,37.14,39.46-37.14,114.02-107.32c-3.92-3.04-8.82-4.85-14.13-4.85H110.64c-5.31,0-10.21,1.82-14.13,4.85l114.02,107.32h0Z" fill="#8a8f99"/>
    <path d="M312.29,254.12l99.64,93.78c.37-1.63.57-3.32.57-5.06v-183.04l-100.21,94.32Z" fill="#8a8f99"/>
    <path d="M87.5,159.8v183.04c0,1.74.2,3.43.57,5.06l99.64-93.78-100.21-94.32h0Z" fill="#8a8f99"/>
    <path d="M296.76,268.74l-39.46,37.14c-2.05,1.93-4.67,2.89-7.3,2.89s-5.25-.96-7.3-2.89l-39.46-37.14-101.44,95.48c2.73,1.14,5.71,1.77,8.84,1.77h278.72c3.13,0,6.11-.63,8.84-1.77l-101.44-95.48Z" fill="#8a8f99"/>
  </g>
  <g display="none">
    <path d="M250,.09H0v250C0,112.02,111.93.09,250,.09Z"/>
    <path d="M0,250.09v250h250C111.93,500.09,0,388.16,0,250.09Z"/>
    <path d="M250,.09c138.07,0,250,111.93,250,250V.09h-250Z"/>
    <path d="M250,500.09h250v-250c0,138.07-111.93,250-250,250Z"/>
  </g>
</svg>