<?xml version="1.0" encoding="UTF-8"?>
<svg id="Layer_1" xmlns="http://www.w3.org/2000/svg" xmlns:xlink="http://www.w3.org/1999/xlink" version="1.1" viewBox="0 0 150 150">
  <!-- Generator: Adobe Illustrator 30.1.0, SVG Export Plug-In . SVG Version: 2.1.1 Build 136)  -->
  <defs>
    <linearGradient id="linear-gradient" x1="-158.49" y1="75" x2="-38.49" y2="75" gradientUnits="userSpaceOnUse">
      <stop offset="0" stop-color="#160047"/>
      <stop offset=".27" stop-color="#643c9e"/>
      <stop offset=".54" stop-color="#160047"/>
    </linearGradient>
  </defs>
  <g id="b1E1Dj">
    <image id="b1E1Dj1" data-name="b1E1Dj" width="1024" height="1024" transform="scale(.15)" xlink:href="favicon-1.png"/>
  </g>
  <polygon points="-342.16 150.11 -394.12 180.11 -342.16 210.11 -290.2 180.11 -342.16 150.11" fill="#b0a1dd"/>
  <path d="M235.98,117.99v-51.25s9.32-5.38,9.32-5.38c0,0,9.32,5.38,9.32,5.38v51.25l-9.32,5.38s-9.32-5.38-9.32-5.38Z" fill="#8c8c8c"/>
  <polygon points="277.12 53.79 261.89 45 248.28 52.82 248.28 104.07 263.51 112.86 277.12 105.04 277.12 53.79" fill="#8c8c8c"/>
  <polygon points="188.32 78.79 188.32 113.74 207.46 102.69 207.46 68.32 188.32 78.79" fill="#8c8c8c"/>
  <path d="M206.02,26.05s-6.07,32.8-6.56,35.46l-.04.04s.02,0,.03.01c-.02.08-.03.14-.03.14l.09-.1c1.31.76,24.09,14.23,24.09,14.23v-39.63s-17.59-10.16-17.59-10.16Z" fill="#e6e6e6"/>
  <path d="M262.07,66.9s-38.46,23.1-38.46,23.1c0,0,0-53.79,0-53.79,0,0,19.14-11.05,19.14-11.05,0,0,19.33,41.74,19.33,41.74Z" fill="#333"/>
  <path d="M229.25,85.85s-19.14,11.05-19.14,11.05c0,0-19.33-41.74-19.33-41.74,0,0,19.14-11.05,19.14-11.05,0,0,19.33,41.74,19.33,41.74Z" fill="#333"/>
  <path d="M236.15,82.9s15.22,8.79,15.22,8.79c0,0,6.59-35.65,6.59-35.65,0,0-15.22-8.79-15.22-8.79,0,0-6.59,35.65-6.59,35.65Z" fill="#e6e6e6"/>
  <g>
    <path d="M190.79,55.16l-17.59-10.16v60l15.13,8.74v-32.55s21.61,45.02,21.61,45.02l15.22,8.79v-60l-15.22-8.79.18,30.69-19.33-41.74Z" fill="#e6e6e6"/>
    <path d="M225.15,135v-60l19.14-11.05,6.95,27.83,6.59-35.65,19.28-11.13v60l-13.62,7.86v-42.91l-8.89,48.04-9.32,5.38-9.17-37.61v42.91l-10.96,6.33Z" fill="#333"/>
  </g>
  <polygon points="192.33 33.95 209.92 44.11 190.79 55.16 173.19 45 192.33 33.95" fill="#8c8c8c"/>
  <polygon points="244.29 63.95 225.15 75 209.93 66.21 229.07 55.16 244.29 63.95" fill="#8c8c8c"/>
  <polygon points="225.15 15 242.75 25.16 223.61 36.21 206.02 26.05 225.15 15" fill="#8c8c8c"/>
  <polygon points="277.11 45 257.97 56.04 242.75 47.25 261.88 36.21 277.11 45" fill="#8c8c8c"/>
  <g>
    <g>
      <path d="M376.76,118.08c.29.16,9.71,5.3,9.71,5.3l-9.71-37.61v32.32Z" fill="#8c8c8c"/>
      <path d="M398.15,108.72c3.82,2.09,7.5,4.09,7.59,4.14v-42.9l-7.59,38.76Z" fill="#8c8c8c"/>
      <polygon points="326.17 113.74 339.12 106.67 326.17 81.19 326.17 113.74" fill="#8c8c8c"/>
      <path d="M349.2,96.83l.04.07-.19-30.69h0s4.06-2.22,8.54-4.66c-4.5-9.17-8.55-17.44-8.55-17.44l-20.25,11.05,20.42,41.67Z" fill="#595959"/>
      <path d="M399.75,56.13l-15.97-8.88s-1.45,7.42-2.8,14.28l4.43,2.42h0s3.13,11.86,3.13,11.86l1.09,4.13,3.13,11.85,6.98-35.65Z" fill="#d9d9d9"/>
      <path d="M349.04,126.21l16.11,8.79v-60l-16.11-8.79.19,30.69s-.01-.03-.04-.07l-20.42-41.67-18.62-10.16v60l16.02,8.74v-32.55l22.87,45.02Z" fill="#d9d9d9"/>
      <polygon points="385.41 63.95 365.15 75 365.15 75 365.15 135 376.76 128.67 376.76 118.08 376.76 85.76 386.47 123.37 386.47 123.37 396.33 117.99 398.15 108.72 405.74 69.95 405.74 112.86 405.74 112.86 405.75 112.86 420.15 105 420.15 45 399.75 56.13 392.77 91.78 385.41 63.95" fill="#595959"/>
      <polygon points="349.03 44.11 330.41 33.95 310.15 45 328.78 55.16 328.78 55.16 349.03 44.11" fill="#a6a6a6"/>
      <polygon points="383.78 25.16 365.15 15 344.9 26.05 363.52 36.21 383.78 25.16" fill="#a6a6a6"/>
      <polygon points="420.15 45 404.03 36.21 383.78 47.25 399.75 56.13 420.15 45" fill="#a6a6a6"/>
    </g>
    <polygon points="365.15 75 385.41 63.95 369.3 55.16 349.04 66.21 365.15 75" fill="#a6a6a6"/>
    <path d="M363.52,58.31v-22.1l-18.62-10.16s-1.31,6.7-2.8,14.28l6.93,3.78s4.05,8.27,8.55,17.44l5.94-3.24Z" fill="#d9d9d9"/>
    <path d="M369.3,55.16s7.03,3.83,11.69,6.37c1.34-6.86,2.8-14.28,2.8-14.28h0s4.38-2.39,8.54-4.66c-4.5-9.17-8.54-17.44-8.54-17.44h0s0,0,0,0l-20.25,11.05v22.1l5.77-3.15Z" fill="#595959"/>
  </g>
  <g>
    <g>
      <rect x="-158.49" y="15" width="120" height="120" rx="30" ry="30" fill="#160047"/>
      <path d="M-68.49,16c15.99,0,29,13.01,29,29v60c0,15.99-13.01,29-29,29h-60c-15.99,0-29-13.01-29-29v-60c0-15.99,13.01-29,29-29h60M-68.49,15h-60c-16.57,0-30,13.43-30,30v60c0,16.57,13.43,30,30,30h60c16.57,0,30-13.43,30-30v-60c0-16.57-13.43-30-30-30h0Z" fill="url(#linear-gradient)"/>
    </g>
    <image width="512" height="242" transform="translate(-141.18 52.63) scale(.17)" xlink:href="favicon-2.png"/>
  </g>
</svg>