<?xml version="1.0" encoding="UTF-8"?>
<svg id="Layer_1" xmlns="http://www.w3.org/2000/svg" xmlns:xlink="http://www.w3.org/1999/xlink" version="1.1" viewBox="0 0 120 120">
  <!-- Generator: Adobe Illustrator 30.1.0, SVG Export Plug-In . SVG Version: 2.1.1 Build 136)  -->
  <defs>
    <linearGradient id="linear-gradient" x1="-452.51" y1="60" x2="-332.51" y2="60" gradientUnits="userSpaceOnUse">
      <stop offset="0" stop-color="#160047"/>
      <stop offset=".27" stop-color="#643c9e"/>
      <stop offset=".54" stop-color="#160047"/>
    </linearGradient>
  </defs>
  <g>
    <rect x="-452.51" width="120" height="120" rx="-106.26" ry="-106.26" fill="#160047"/>
    <path d="M-352.51,1c10.48,0,19,8.52,19,19v80c0,10.48-8.52,19-19,19h-80c-10.48,0-19-8.52-19-19V20c0-10.48,8.52-19,19-19h80M-352.51,0h-80c-11.05,0-20,8.95-20,20v80c0,11.05,8.95,20,20,20h80c11.05,0,20-8.95,20-20V20c0-11.05-8.95-20-20-20h0Z" fill="url(#linear-gradient)"/>
  </g>
  <image width="512" height="242" transform="translate(-435.2 37.63) scale(.17)" xlink:href="favicon-1.png"/>
  <g id="b1E1Dj">
    <image id="b1E1Dj1" data-name="b1E1Dj" width="1024" height="1024" transform="translate(-306.81 -14.5) scale(.15)" xlink:href="favicon-2.png"/>
  </g>
  <polygon points="-647.31 135.11 -699.27 165.11 -647.31 195.11 -595.35 165.11 -647.31 135.11" fill="#b0a1dd"/>
  <path d="M-69.18,102.99v-51.25s9.32-5.38,9.32-5.38c0,0,9.32,5.38,9.32,5.38v51.25l-9.32,5.38s-9.32-5.38-9.32-5.38Z" fill="#8c8c8c"/>
  <polygon points="-28.04 38.79 -43.26 30 -56.87 37.82 -56.87 89.07 -41.65 97.86 -28.04 90.04 -28.04 38.79" fill="#8c8c8c"/>
  <polygon points="-116.83 63.79 -116.83 98.74 -97.69 87.69 -97.69 53.32 -116.83 63.79" fill="#8c8c8c"/>
  <path d="M-99.14,11.05s-6.07,32.8-6.56,35.46l-.04.04s.02,0,.03.01c-.02.08-.03.14-.03.14l.09-.1c1.31.76,24.09,14.23,24.09,14.23V21.21s-17.59-10.16-17.59-10.16Z" fill="#e6e6e6"/>
  <path d="M-43.08,51.9s-38.46,23.1-38.46,23.1c0,0,0-53.79,0-53.79,0,0,19.14-11.05,19.14-11.05,0,0,19.33,41.74,19.33,41.74Z" fill="#333"/>
  <path d="M-75.91,70.85s-19.14,11.05-19.14,11.05c0,0-19.33-41.74-19.33-41.74,0,0,19.14-11.05,19.14-11.05,0,0,19.33,41.74,19.33,41.74Z" fill="#333"/>
  <path d="M-69,67.9s15.22,8.79,15.22,8.79c0,0,6.59-35.65,6.59-35.65,0,0-15.22-8.79-15.22-8.79,0,0-6.59,35.65-6.59,35.65Z" fill="#e6e6e6"/>
  <g>
    <path d="M-114.37,40.16l-17.59-10.16v60l15.13,8.74v-32.55s21.61,45.02,21.61,45.02l15.22,8.79v-60l-15.22-8.79.18,30.69-19.33-41.74Z" fill="#e6e6e6"/>
    <path d="M-80,120v-60l19.14-11.05,6.95,27.83,6.59-35.65,19.28-11.13v60l-13.62,7.86v-42.91l-8.89,48.04-9.32,5.38-9.17-37.61v42.91l-10.96,6.33Z" fill="#333"/>
  </g>
  <polygon points="-112.83 18.95 -95.23 29.11 -114.37 40.16 -131.96 30 -112.83 18.95" fill="#8c8c8c"/>
  <polygon points="-60.86 48.95 -80 60 -95.22 51.21 -76.09 40.16 -60.86 48.95" fill="#8c8c8c"/>
  <polygon points="-80 0 -62.41 10.16 -81.54 21.21 -99.14 11.05 -80 0" fill="#8c8c8c"/>
  <polygon points="-28.05 30 -47.18 41.04 -62.41 32.25 -43.27 21.21 -28.05 30" fill="#8c8c8c"/>
  <g>
    <g>
      <path d="M71.61,103.08c.29.16,9.71,5.3,9.71,5.3l-9.71-37.61v32.32Z" fill="#8c8c8c"/>
      <path d="M93,93.72c3.82,2.09,7.5,4.09,7.59,4.14v-42.9l-7.59,38.76Z" fill="#8c8c8c"/>
      <polygon points="21.02 98.74 33.96 91.67 21.02 66.19 21.02 98.74" fill="#8c8c8c"/>
      <path d="M44.04,81.83l.04.07-.19-30.69h0s4.06-2.22,8.54-4.66c-4.5-9.17-8.55-17.44-8.55-17.44l-20.25,11.05,20.42,41.67Z" fill="#595959"/>
      <path d="M94.59,41.13l-15.97-8.88s-1.45,7.42-2.8,14.28l4.43,2.42h0s3.13,11.86,3.13,11.86l1.09,4.13,3.13,11.85,6.98-35.65Z" fill="#d9d9d9"/>
      <path d="M43.89,111.21l16.11,8.79v-60l-16.11-8.79.19,30.69s-.01-.03-.04-.07l-20.42-41.67L5,30v60l16.02,8.74v-32.55l22.87,45.02Z" fill="#d9d9d9"/>
      <polygon points="80.25 48.95 60 60 60 60 60 120 71.61 113.67 71.61 103.08 71.61 70.76 81.32 108.37 81.32 108.37 91.18 102.99 93 93.72 100.59 54.95 100.59 97.86 100.59 97.86 100.59 97.86 115 90 115 30 94.59 41.13 87.61 76.78 80.25 48.95" fill="#595959"/>
      <polygon points="43.88 29.11 25.25 18.95 5 30 23.62 40.16 23.62 40.16 43.88 29.11" fill="#a6a6a6"/>
      <polygon points="78.62 10.16 60 0 39.75 11.05 58.37 21.21 78.62 10.16" fill="#a6a6a6"/>
      <polygon points="114.99 30 98.88 21.21 78.62 32.25 94.59 41.13 114.99 30" fill="#a6a6a6"/>
    </g>
    <polygon points="60 60 80.25 48.95 64.14 40.16 43.89 51.21 60 60" fill="#a6a6a6"/>
    <path d="M58.37,43.31v-22.1l-18.62-10.16s-1.31,6.7-2.8,14.28l6.93,3.78s4.05,8.27,8.55,17.44l5.94-3.24Z" fill="#d9d9d9"/>
    <path d="M64.14,40.16s7.03,3.83,11.69,6.37c1.34-6.86,2.8-14.28,2.8-14.28h0s4.38-2.39,8.54-4.66c-4.5-9.17-8.54-17.44-8.54-17.44h0s0,0,0,0l-20.25,11.05v22.1l5.77-3.15Z" fill="#595959"/>
  </g>
</svg>